#N canvas 827 239 734 565 12;
#X obj 176 153 note.in;
#X obj 176 246 mtof;
#X obj 176 284 osc~;
#X obj 176 369 *~ 0.3;
#X obj 176 412 dac~;
#X obj 176 200 makenote 200;
#X obj 238 246 pack f f;
#X obj 254 292 line~;
#X obj 176 326 *~;
#X connect 0 0 5 0;
#X connect 1 0 2 0;
#X connect 2 0 8 0;
#X connect 3 0 4 0;
#X connect 5 0 1 0;
#X connect 5 1 6 0;
#X connect 6 0 7 1;
#X connect 7 0 8 1;
#X connect 8 0 3 0;
